HIERARCHY
ROOT root
{
	OFFSET 0.000000 0.000000 0.000000
	CHANNELS 6 Xposition Yposition Zposition Zrotation Yrotation Xrotation
	JOINT lhip
	{
		OFFSET 0.058581 -0.082280 -0.017664
		CHANNELS 3 Zrotation Yrotation Xrotation
		JOINT lknee
		{
			OFFSET 0.043451 -0.386469 0.008037
			CHANNELS 3 Zrotation Yrotation Xrotation
			JOINT lankle
			{
				OFFSET -0.014790 -0.426874 -0.037428
				CHANNELS 3 Zrotation Yrotation Xrotation
				JOINT ltoe
				{
					OFFSET 0.041054 -0.060286 0.122042
					CHANNELS 3 Zrotation Yrotation Xrotation
					End Site
					{
						OFFSET 0.000000 0.000000 0.000000
					}
				}
			}
		}
	}
	JOINT rhip
	{
		OFFSET -0.060310 -0.090513 -0.013543
		CHANNELS 3 Zrotation Yrotation Xrotation
		JOINT rknee
		{
			OFFSET -0.043257 -0.383688 -0.004843
			CHANNELS 3 Zrotation Yrotation Xrotation
			JOINT rankle
			{
				OFFSET 0.019056 -0.420046 -0.034562
				CHANNELS 3 Zrotation Yrotation Xrotation
				JOINT rtoe
				{
					OFFSET -0.034840 -0.062106 0.130323
					CHANNELS 3 Zrotation Yrotation Xrotation
					End Site
					{
						OFFSET 0.000000 0.000000 0.000000
					}
				}
			}
		}
	}
	JOINT lowerback
	{
		OFFSET 0.004439 0.124404 -0.038385
		CHANNELS 3 Zrotation Yrotation Xrotation
		JOINT upperback
		{
			OFFSET 0.004488 0.137956 0.026820
			CHANNELS 3 Zrotation Yrotation Xrotation
			JOINT chest
			{
				OFFSET -0.002265 0.056032 0.002855
				CHANNELS 3 Zrotation Yrotation Xrotation
				JOINT lowerneck
				{
					OFFSET -0.013390 0.211636 -0.033468
					CHANNELS 3 Zrotation Yrotation Xrotation
					JOINT upperneck
					{
						OFFSET 0.010113 0.088937 0.050410
						CHANNELS 3 Zrotation Yrotation Xrotation
						End Site
						{
							OFFSET 0.000000 0.000000 0.000000
						}
					}
				}
				JOINT lclavicle
				{
					OFFSET 0.071702 0.114000 -0.018898
					CHANNELS 3 Zrotation Yrotation Xrotation
					JOINT lshoulder
					{
						OFFSET 0.122921 0.045205 -0.019046
						CHANNELS 3 Zrotation Yrotation Xrotation
						JOINT lelbow
						{
							OFFSET 0.255332 -0.015649 -0.022946
							CHANNELS 3 Zrotation Yrotation Xrotation
							JOINT lwrist
							{
								OFFSET 0.265709 0.012698 -0.007375
								CHANNELS 3 Zrotation Yrotation Xrotation
								End Site
								{
									OFFSET 0.000000 0.000000 0.000000
								}
							}
						}
					}
				}
				JOINT rclavicle
				{
					OFFSET -0.082954 0.112472 -0.023707
					CHANNELS 3 Zrotation Yrotation Xrotation
					JOINT rshoulder
					{
						OFFSET -0.113228 0.046853 -0.008472
						CHANNELS 3 Zrotation Yrotation Xrotation
						JOINT relbow
						{
							OFFSET -0.260127 -0.014369 -0.031269
							CHANNELS 3 Zrotation Yrotation Xrotation
							JOINT rwrist
							{
								OFFSET -0.269108 0.006794 -0.006027
								CHANNELS 3 Zrotation Yrotation Xrotation
								End Site
								{
									OFFSET 0.000000 0.000000 0.000000
								}
							}
						}
					}
				}
			}
		}
	}
}
MOTION
Frames: 16
Frame Time: 0.033333
1.154110 0.214485 0.989550 -96.695155 11.469703 83.708481 10.724013 1.134858 2.889935 -4.122561 -15.126320 17.457453 5.397959 12.705520 -26.214210 0.000000 -0.000000 0.000000 -5.457293 -2.127273 -13.088836 0.409593 -5.852342 27.456865 5.183221 -10.941881 -9.162130 0.000000 -0.000000 0.000000 -6.881397 1.170594 12.275859 5.027584 -3.728385 6.138068 2.614509 -3.477560 5.677402 10.484000 -10.885693 8.578269 5.033109 -16.016453 15.009802 -18.421238 7.604322 7.064615 -56.958433 -9.949769 6.493012 10.008649 -32.831672 6.237290 4.819382 -2.714782 -15.295195 22.404618 -6.120691 1.583119 64.633153 -0.902071 10.286364 -15.481908 27.775156 -0.743339 4.361619 1.412246 -9.260838 
1.150488 0.224468 0.988712 -96.202495 12.495105 83.533008 12.408946 1.095259 2.596886 -4.290844 -15.759348 19.017393 5.442033 12.750030 -27.113956 0.000000 -0.000000 0.000000 -7.479865 -3.213464 -13.007897 0.578327 -5.048746 24.608465 5.741919 -10.500279 -4.433081 0.000000 -0.000000 0.000000 -7.058722 1.566621 12.287027 5.262343 -3.785475 6.123203 2.876992 -3.670026 5.462526 10.567137 -11.465476 8.902974 5.586959 -16.003290 15.102380 -18.065767 7.898686 7.506869 -55.823680 -10.265510 6.000718 9.926662 -33.085923 6.189658 4.388309 -3.006138 -15.946629 22.792420 -6.688796 1.872629 63.995970 -1.490657 10.270441 -15.351452 28.289580 -1.073864 4.971198 1.277918 -9.600476 
1.146415 0.236046 0.987642 -95.862548 13.499145 83.422247 14.259218 1.293616 2.300672 -4.516334 -16.265413 20.517945 5.210434 12.826240 -28.177930 0.000000 -0.000000 0.000000 -9.427124 -4.525528 -12.739582 1.213984 -4.082639 21.442079 6.754145 -9.575234 -1.012355 0.000000 -0.000000 0.000000 -7.380567 1.954304 12.011279 5.471598 -3.964982 6.104656 3.089960 -3.698170 5.285238 10.724837 -11.773951 9.521470 5.962432 -16.131105 15.223635 -17.770212 8.445278 7.628345 -54.352364 -10.595424 5.401055 9.200995 -33.206150 6.120855 4.792764 -2.801272 -15.925655 23.165407 -7.136900 1.927085 63.596675 -1.528111 10.139202 -14.751772 27.518195 -1.333784 4.499874 0.932788 -8.678074 
1.140738 0.248526 0.986503 -95.908336 14.227486 82.535828 15.928220 1.794976 3.090063 -4.737008 -17.121683 21.828859 4.773389 12.770933 -29.169417 0.000000 -0.000000 0.000000 -11.260950 -5.352506 -11.677170 1.688868 -2.777398 18.446596 7.747041 -8.565996 1.414216 0.000000 -0.000000 0.000000 -7.953475 2.590604 12.062858 5.589317 -4.032271 6.530046 3.272270 -3.767748 5.018672 10.942309 -11.822267 10.117313 6.341189 -16.065252 15.396489 -17.674240 8.810109 7.704398 -52.682701 -10.692156 4.684926 8.816582 -33.335402 5.820124 5.285737 -2.802400 -15.955721 23.616397 -7.792148 1.730930 63.180259 -1.636323 9.914903 -13.963040 26.931820 -1.126511 4.364669 0.803491 -7.831024 
1.141168 0.262198 0.983359 -93.452824 15.582389 84.237405 18.107799 0.139643 -0.394197 -5.483103 -17.375927 24.879873 4.672850 12.859728 -30.278334 0.000000 -0.000000 0.000000 -12.444654 -5.836798 -12.322566 2.003471 -3.368994 15.803946 8.614710 -9.621474 4.644248 0.000000 -0.000000 0.000000 -7.934199 1.813976 12.000237 5.839791 -4.732005 4.713852 3.329067 -4.177093 5.646114 11.447679 -11.984839 9.517204 6.566670 -16.393272 16.001347 -17.029250 9.697150 7.921571 -51.420594 -11.820765 4.256895 8.133311 -33.215114 6.073852 5.226845 -3.278191 -16.073448 23.820305 -8.920888 1.301983 63.219408 -1.930217 10.470405 -13.745362 26.692804 -1.175467 3.979225 0.988069 -8.026621 
1.074351 0.259872 0.973708 -107.864856 18.812599 73.183587 27.112698 15.019309 23.033988 0.530381 -18.707598 12.834853 7.360302 9.598126 -34.397214 0.000000 -0.000000 0.000000 -12.739861 -10.941572 -4.422926 6.310017 5.523967 13.624546 12.059485 0.476893 7.359039 0.000000 -0.000000 0.000000 6.278389 5.767189 0.472650 3.001982 -3.202112 20.002616 -4.426404 -0.186617 7.726228 8.673908 -14.055435 12.127635 7.581349 -15.267143 15.220917 -19.334940 7.599173 5.881880 -49.993582 -9.167568 2.840875 8.817382 -32.397302 0.747152 4.526516 -3.974154 -7.458017 22.671546 -7.967637 1.120208 62.087033 -4.472861 5.265502 -11.564563 27.828348 -4.412867 10.037971 0.083934 -0.708994 
1.079308 0.270414 0.961379 -103.105065 19.434015 77.206082 26.505774 15.145162 14.520479 1.192902 -20.321667 17.400236 5.821557 7.810152 -33.168034 0.000000 -0.000000 0.000000 -14.404418 -13.851097 -7.940726 6.773062 4.497708 13.531320 12.729244 0.019369 9.229559 0.000000 -0.000000 0.000000 5.199286 5.488369 0.565464 2.285002 -5.088921 15.368688 -3.731780 -1.194776 9.142686 8.260291 -13.125717 9.384134 8.487587 -16.339862 18.750549 -17.165905 7.184728 5.711535 -50.428095 -9.265014 -0.195248 6.887502 -32.083033 2.000138 4.494026 -6.078004 -4.347333 21.742474 -8.703956 0.244965 62.660770 -5.377458 3.222101 -9.837280 28.327680 -3.483614 12.158603 -0.716667 1.785198 
1.092985 0.286804 0.953364 -94.333688 20.924290 89.362158 25.399596 7.078685 -4.156989 -1.018685 -16.261874 25.202543 6.490612 8.498933 -32.902507 0.000000 -0.000000 0.000000 -13.112333 -13.485056 -16.690342 6.101229 -1.211983 12.117166 11.911638 -5.142108 11.259898 0.000000 -0.000000 0.000000 2.100440 4.541214 -8.324988 4.015049 -9.418512 12.075937 -3.579388 -2.860064 10.461259 8.025550 -13.359757 10.477394 9.150383 -16.075394 17.761753 -16.433657 8.238487 8.747070 -49.620515 -12.095622 0.580011 8.501886 -32.157839 1.829756 4.066652 -6.085075 -5.928863 21.288049 -11.761497 1.788803 63.621490 -3.445357 6.022179 -10.749512 27.940131 0.065903 10.510001 0.171205 -3.959196 
1.090628 0.307473 0.952990 -93.771853 19.934025 87.389708 26.294179 6.405106 -2.202229 -1.748857 -17.753646 25.565739 5.487546 9.074515 -32.960233 0.000000 -0.000000 0.000000 -14.796198 -14.144510 -14.802203 5.834234 -1.439262 12.190723 12.814993 -5.243012 13.549473 0.000000 -0.000000 0.000000 -1.302778 4.307084 -4.941026 4.104046 -9.169909 11.727011 -2.307821 -3.202125 9.539094 8.695495 -12.198062 10.775564 9.133583 -16.528957 18.136283 -15.474152 8.195896 8.862291 -48.249751 -11.767800 -0.280458 7.581911 -32.758618 3.810682 4.563543 -6.121979 -7.710733 21.201866 -11.690010 1.920202 64.352448 -4.380711 6.117755 -10.747294 27.986826 0.941570 9.839597 0.450058 -5.108373 
1.092323 0.330191 0.951706 -91.449609 19.314639 88.197772 27.208204 4.781626 -4.243421 -2.844225 -18.871483 27.457862 4.719252 9.784850 -33.031420 0.000000 -0.000000 0.000000 -15.465974 -14.366017 -14.616507 5.619921 -2.031259 11.712535 13.223563 -6.600979 15.307326 0.000000 -0.000000 0.000000 -4.267104 3.503738 -2.008620 4.487134 -9.216406 8.769302 -1.083845 -3.990302 8.916185 8.760760 -11.973511 11.602281 9.518205 -16.130856 18.332118 -14.703918 8.817294 9.890869 -46.809188 -11.998058 -1.080371 6.460164 -33.507429 6.126203 5.392722 -5.793484 -9.729555 21.122631 -12.448922 2.495156 64.454053 -5.351706 6.332593 -10.060977 27.874379 2.337580 8.640520 1.286171 -6.696990 
1.089466 0.353285 0.949988 -90.174258 18.441515 87.731578 27.904652 3.164008 -3.608203 -3.335496 -20.068250 27.672868 3.983935 10.860776 -33.637285 0.000000 -0.000000 0.000000 -16.456052 -13.479153 -13.025338 5.512820 -2.103402 10.788273 14.470981 -6.911179 17.362079 0.000000 -0.000000 0.000000 -6.923464 3.396034 0.108557 4.702964 -9.133301 8.655567 -0.077089 -4.432085 7.719600 9.188956 -11.500111 12.184637 9.838869 -16.372787 18.039590 -13.979120 8.809248 10.200118 -45.768766 -11.861755 -1.405748 5.862554 -34.348815 7.801926 5.927295 -5.721176 -10.606537 20.978562 -12.728873 2.722008 64.810772 -6.567110 6.566870 -9.741483 28.043300 3.669029 8.523936 1.325916 -8.007954 
1.088246 0.378431 0.947558 -89.501717 17.427796 86.982886 28.492100 1.901290 -2.782261 -3.909234 -21.306698 28.189379 3.290504 11.888012 -33.900058 0.000000 -0.000000 0.000000 -16.846640 -12.846442 -12.299162 5.275839 -0.591323 11.158413 15.357476 -7.070530 19.276969 0.000000 -0.000000 0.000000 -9.285051 3.373466 2.862845 4.795190 -8.479148 8.311284 1.054974 -4.637809 6.664090 9.649920 -10.906007 12.025813 9.940187 -16.114135 17.877526 -13.451045 8.876432 9.752043 -44.462373 -11.783691 -1.735653 4.376314 -35.313574 9.567798 6.323583 -5.423175 -12.215976 21.068648 -12.681446 2.762690 64.842446 -7.378508 6.790283 -9.398002 27.655971 3.957056 8.386905 1.457749 -8.306344 
1.086607 0.404217 0.943627 -88.415081 16.173829 86.687443 28.774886 0.164160 -2.363402 -4.409458 -22.184333 28.546657 2.438345 12.873989 -34.085722 0.000000 -0.000000 0.000000 -17.241536 -11.646418 -11.510576 4.815971 0.459356 11.298960 16.254535 -7.259649 20.182735 0.000000 -0.000000 0.000000 -11.369045 3.472186 5.307273 5.073681 -7.994570 8.290366 2.219568 -5.061160 5.425883 10.096743 -10.518569 11.924650 9.522854 -16.134720 17.598661 -13.273275 8.658332 9.844819 -43.689011 -11.656529 -1.882673 4.052651 -36.574944 10.269844 6.882023 -5.701638 -13.917676 21.378436 -11.994223 3.048598 64.240735 -7.907976 7.278197 -9.280289 27.293015 4.238329 8.251289 1.466045 -8.555113 
1.085277 0.431172 0.938229 -87.750444 14.716480 86.604746 29.159870 -0.910429 -1.923180 -4.976445 -23.157732 28.643016 1.372931 13.634388 -34.451525 0.000000 -0.000000 0.000000 -17.327904 -10.417277 -11.670244 4.644636 1.948721 12.694189 17.676862 -6.760015 20.931800 0.000000 -0.000000 0.000000 -12.838184 3.707670 7.635256 5.244105 -7.054444 8.285464 3.221232 -5.182327 3.953481 10.443319 -9.646923 11.798392 9.245297 -15.740914 17.404282 -12.894757 8.262285 9.845349 -43.310391 -11.339468 -1.818606 3.440043 -38.195866 11.217353 6.448902 -5.184662 -15.184045 21.449406 -11.037248 3.021851 63.402997 -8.502915 7.392423 -8.663886 26.594518 4.704019 9.573407 1.820946 -8.896009 
1.080019 0.457371 0.930130 -86.753003 12.873558 87.359850 29.078960 -1.721357 -2.169817 -5.053846 -23.619202 28.498791 0.121277 13.704291 -35.327396 0.000000 -0.000000 0.000000 -17.611590 -10.262280 -12.905882 4.738849 1.554259 16.454868 19.723714 -6.307455 16.273377 0.000000 -0.000000 0.000000 -13.477247 3.893364 8.176260 5.424130 -6.689821 8.936637 3.365425 -5.222653 3.151754 11.158258 -8.314596 11.001205 9.035629 -15.595024 16.672086 -13.347273 8.119112 9.391981 -42.521721 -11.110051 -1.033534 3.219978 -39.546944 10.870629 6.798595 -5.585362 -15.452289 22.285079 -10.567536 2.437866 61.372431 -8.873814 7.908823 -7.772460 26.587780 5.126036 9.690004 1.902093 -7.817084 
1.074334 0.483230 0.920112 -86.375217 11.015045 87.354400 28.963961 -2.027056 -1.363896 -4.892798 -24.481392 27.729863 -1.276656 13.901312 -35.524640 0.000000 -0.000000 0.000000 -17.920441 -10.099070 -13.786289 4.119808 0.007637 21.155695 18.306948 -6.354992 4.296900 0.000000 -0.000000 0.000000 -12.889833 3.455374 10.128778 4.943417 -5.779690 7.745600 3.181245 -5.043628 3.504793 11.467301 -7.230029 10.341008 7.931721 -15.889883 16.838846 -13.447880 8.154134 9.005803 -42.371388 -10.467888 -0.508665 2.785193 -40.684750 11.334539 7.505752 -5.339239 -16.792030 22.185461 -9.331785 2.469963 59.879807 -8.757590 8.202024 -6.595214 26.940888 6.709957 8.107499 1.970501 -6.016189 
